0
SECTION
2
HEADER
9
$INSUNITS
70
4
9
$ACADVER
1
AC1014
9
$HANDSEED
5
FFFF
0
ENDSEC
0
SECTION
2
TABLES
0
TABLE
2
VPORT
5
8
100
AcDbSymbolTable
0
ENDTAB
0
TABLE
2
LTYPE
5
5
100
AcDbSymbolTable
0
LTYPE
5
14
100
AcDbSymbolTableRecord
100
AcDbLinetypeTableRecord
2
BYBLOCK
70
0
0
LTYPE
5
15
100
AcDbSymbolTableRecord
100
AcDbLinetypeTableRecord
2
BYLAYER
70
0
0
ENDTAB
0
TABLE
2
LAYER
5
2
100
AcDbSymbolTable
70
2
0
LAYER
5
50
100
AcDbSymbolTableRecord
100
AcDbLayerTableRecord
2
0
70
0
6
CONTINUOUS
0
ENDTAB
0
TABLE
2
STYLE
5
3
100
AcDbSymbolTable
70
1
0
STYLE
5
11
100
AcDbSymbolTableRecord
100
AcDbTextStyleTableRecord
2
STANDARD
70
0
0
ENDTAB
0
TABLE
2
VIEW
5
6
100
AcDbSymbolTable
70
0
0
ENDTAB
0
TABLE
2
UCS
5
7
100
AcDbSymbolTable
70
0
0
ENDTAB
0
TABLE
2
APPID
5
9
100
AcDbSymbolTable
70
2
0
APPID
5
12
100
AcDbSymbolTableRecord
100
AcDbRegAppTableRecord
2
ACAD
70
0
0
ENDTAB
0
TABLE
2
DIMSTYLE
5
A
100
AcDbSymbolTable
70
1
0
ENDTAB
0
TABLE
2
BLOCK_RECORD
5
1
100
AcDbSymbolTable
70
1
0
BLOCK_RECORD
5
1F
100
AcDbSymbolTableRecord
100
AcDbBlockTableRecord
2
*MODEL_SPACE
0
BLOCK_RECORD
5
1B
100
AcDbSymbolTableRecord
100
AcDbBlockTableRecord
2
*PAPER_SPACE
0
ENDTAB
0
ENDSEC
0
SECTION
2
BLOCKS
0
BLOCK
5
20
100
AcDbEntity
100
AcDbBlockBegin
2
*MODEL_SPACE
0
ENDBLK
5
21
100
AcDbEntity
100
AcDbBlockEnd
0
BLOCK
5
1C
100
AcDbEntity
100
AcDbBlockBegin
2
*PAPER_SPACE
0
ENDBLK
5
1D
100
AcDbEntity
100
AcDbBlockEnd
0
ENDSEC
0
SECTION
2
ENTITIES
0
LWPOLYLINE
5
100
100
AcDbEntity
8
0
100
AcDbPolyline
90
24
70
1
43
0.0
10
-190.50000000000006
20
102.0125
42
-0.4142135623730977
10
-192.5
20
100.0125
10
-193.26250000000002
20
100.0125
42
0.41421356237309509
10
-195.26250000000002
20
98.012500000000017
10
-195.26250000000002
20
82.962500000000006
42
0.41421356237309509
10
-193.26250000000002
20
80.962500000000006
10
-187.73750000000001
20
80.962499999999991
42
-0.4142135623730937
10
-185.73750000000001
20
78.962500000000006
10
-185.73750000000001
20
63.912499999999994
42
0.41421356237309509
10
-183.73750000000001
20
61.912500000000001
10
-182.97499999999999
20
61.912500000000001
42
-0.41421356237309637
10
-180.97499999999999
20
59.912500000000001
10
-180.97499999999999
20
44.862499999999997
42
-0.41421356237309637
10
-182.97499999999999
20
42.862499999999997
10
-188.5
20
42.862499999999997
42
0.41421356237309509
10
-190.5
20
40.862499999999997
10
-190.5
20
-6.0000000000000009
42
-0.41421356237310203
10
-192.50000000000003
20
-8
10
-394.52499999999998
20
-7.9999999999999671
42
-0.4142135623730947
10
-398.52499999999998
20
-3.9999999999999858
10
-398.52499999999992
20
123.0625
42
-0.41421356237309892
10
-394.52499999999998
20
127.0625
10
-192.5
20
127.06250000000003
42
-0.4142135623730977
10
-190.5
20
125.06250000000001
0
CIRCLE
5
101
100
AcDbEntity
8
0
100
AcDbCircle
10
-194.5
20
-4
30
0
40
1.0999999999999943
210
0
220
-0
230
1
0
CIRCLE
5
102
100
AcDbEntity
8
0
100
AcDbCircle
10
-333.84999999999997
20
-4
30
0
40
1.0999999999999943
210
0
220
-0
230
1
0
CIRCLE
5
103
100
AcDbEntity
8
0
100
AcDbCircle
10
-223.36250000000001
20
-4.0000000000000009
30
0
40
1.0999999999999943
210
0
220
-0
230
1
0
CIRCLE
5
104
100
AcDbEntity
8
0
100
AcDbCircle
10
-393.93921356237314
20
-3.4142135623730807
30
0
40
1.0999999999999943
210
0
220
-0
230
1
0
CIRCLE
5
105
100
AcDbEntity
8
0
100
AcDbCircle
10
-313.84999999999997
20
-4
30
0
40
1.0999999999999943
210
0
220
-0
230
1
0
CIRCLE
5
106
100
AcDbEntity
8
0
100
AcDbCircle
10
-293.51249999999999
20
123.0625
30
0
40
1.0999999999999943
210
0
220
-0
230
1
0
CIRCLE
5
107
100
AcDbEntity
8
0
100
AcDbCircle
10
-393.93921356237314
20
122.47671356237308
30
0
40
1.0999999999999943
210
0
220
-0
230
1
0
CIRCLE
5
108
100
AcDbEntity
8
0
100
AcDbCircle
10
-194.5
20
123.0625
30
0
40
1.0999999999999943
210
0
220
-0
230
1
0
CIRCLE
5
109
100
AcDbEntity
8
0
100
AcDbCircle
10
-243.36250000000001
20
-4.0000000000000009
30
0
40
1.0999999999999943
210
0
220
-0
230
1
0
CIRCLE
5
110
100
AcDbEntity
8
0
100
AcDbCircle
10
-353.61600000000004
20
61.912500000000001
30
0
40
1.4999999999999858
210
0
220
-0
230
1
0
ENDSEC
0
SECTION
2
OBJECTS
0
DICTIONARY
5
C
100
AcDbDictionary
3
ACAD_GROUP
350
D
3
ACAD_MLINESTYLE
350
17
0
DICTIONARY
5
D
100
AcDbDictionary
0
DICTIONARY
5
1A
330
C
100
AcDbDictionary
0
DICTIONARY
5
17
100
AcDbDictionary
0
ENDSEC
0
EOF
