0
SECTION
2
HEADER
9
$INSUNITS
70
4
9
$ACADVER
1
AC1014
9
$HANDSEED
5
FFFF
0
ENDSEC
0
SECTION
2
TABLES
0
TABLE
2
VPORT
5
8
100
AcDbSymbolTable
0
ENDTAB
0
TABLE
2
LTYPE
5
5
100
AcDbSymbolTable
0
LTYPE
5
14
100
AcDbSymbolTableRecord
100
AcDbLinetypeTableRecord
2
BYBLOCK
70
0
0
LTYPE
5
15
100
AcDbSymbolTableRecord
100
AcDbLinetypeTableRecord
2
BYLAYER
70
0
0
ENDTAB
0
TABLE
2
LAYER
5
2
100
AcDbSymbolTable
70
2
0
LAYER
5
50
100
AcDbSymbolTableRecord
100
AcDbLayerTableRecord
2
0
70
0
6
CONTINUOUS
0
ENDTAB
0
TABLE
2
STYLE
5
3
100
AcDbSymbolTable
70
1
0
STYLE
5
11
100
AcDbSymbolTableRecord
100
AcDbTextStyleTableRecord
2
STANDARD
70
0
0
ENDTAB
0
TABLE
2
VIEW
5
6
100
AcDbSymbolTable
70
0
0
ENDTAB
0
TABLE
2
UCS
5
7
100
AcDbSymbolTable
70
0
0
ENDTAB
0
TABLE
2
APPID
5
9
100
AcDbSymbolTable
70
2
0
APPID
5
12
100
AcDbSymbolTableRecord
100
AcDbRegAppTableRecord
2
ACAD
70
0
0
ENDTAB
0
TABLE
2
DIMSTYLE
5
A
100
AcDbSymbolTable
70
1
0
ENDTAB
0
TABLE
2
BLOCK_RECORD
5
1
100
AcDbSymbolTable
70
1
0
BLOCK_RECORD
5
1F
100
AcDbSymbolTableRecord
100
AcDbBlockTableRecord
2
*MODEL_SPACE
0
BLOCK_RECORD
5
1B
100
AcDbSymbolTableRecord
100
AcDbBlockTableRecord
2
*PAPER_SPACE
0
ENDTAB
0
ENDSEC
0
SECTION
2
BLOCKS
0
BLOCK
5
20
100
AcDbEntity
100
AcDbBlockBegin
2
*MODEL_SPACE
0
ENDBLK
5
21
100
AcDbEntity
100
AcDbBlockEnd
0
BLOCK
5
1C
100
AcDbEntity
100
AcDbBlockBegin
2
*PAPER_SPACE
0
ENDBLK
5
1D
100
AcDbEntity
100
AcDbBlockEnd
0
ENDSEC
0
SECTION
2
ENTITIES
0
LWPOLYLINE
5
100
100
AcDbEntity
8
0
100
AcDbPolyline
90
24
70
1
43
0.0
10
-161.92500000000001
20
40.862499999999997
42
-0.4142135623730937
10
-159.92500000000004
20
42.862499999999997
10
-154.40000000000001
20
42.862499999999997
42
0.41421356237309509
10
-152.40000000000003
20
44.862499999999997
10
-152.40000000000003
20
59.912500000000009
42
0.41421356237309509
10
-154.40000000000001
20
61.912500000000001
10
-155.16250000000002
20
61.912499999999994
42
-0.41421356237309243
10
-157.16249999999999
20
63.912500000000001
10
-157.16249999999999
20
78.96250000000002
42
0.41421356237309509
10
-159.16249999999999
20
80.962500000000006
10
-164.6875
20
80.962499999999991
42
-0.4142135623730977
10
-166.6875
20
82.962500000000006
10
-166.68749999999994
20
98.012500000000017
42
-0.4142135623730977
10
-164.6875
20
100.0125
10
-163.92500000000007
20
100.0125
42
0.41421356237309509
10
-161.92500000000001
20
102.0125
10
-161.92500000000001
20
125.06250000000001
42
-0.4142135623731002
10
-159.92500000000001
20
127.06249999999999
10
4
20
127.06250000000003
42
-0.41421356237309248
10
8.0000000000000071
20
123.06250000000003
10
8.0000000000000142
20
-4.0000000000000009
42
-0.41421356237309381
10
4.0000000000000213
20
-8.0000000000000071
10
-159.92500000000004
20
-7.9999999999999938
42
-0.4142135623730957
10
-161.92500000000001
20
-5.9999999999999964
0
LWPOLYLINE
5
101
100
AcDbEntity
8
0
100
AcDbPolyline
90
4
70
1
43
0.0
10
-121.58750000000001
20
64.4375
10
-121.58750000000001
20
78.4375
10
-135.58750000000001
20
78.4375
10
-135.58750000000001
20
64.4375
0
LWPOLYLINE
5
102
100
AcDbEntity
8
0
100
AcDbPolyline
90
4
70
1
43
0.0
10
-121.30000000000001
20
40.337500000000006
10
-121.30000000000001
20
26.337499999999999
10
-107.30000000000001
20
26.337499999999999
10
-107.30000000000001
20
40.337500000000006
0
LWPOLYLINE
5
103
100
AcDbEntity
8
0
100
AcDbPolyline
90
4
70
1
43
0.0
10
-116.53750000000001
20
64.4375
10
-102.53749999999999
20
64.4375
10
-102.53749999999999
20
78.4375
10
-116.53750000000001
20
78.4375
0
LWPOLYLINE
5
104
100
AcDbEntity
8
0
100
AcDbPolyline
90
4
70
1
43
0.0
10
-97.487500000000011
20
64.4375
10
-83.487500000000011
20
64.4375
10
-83.487500000000011
20
78.4375
10
-97.487500000000011
20
78.4375
0
LWPOLYLINE
5
105
100
AcDbEntity
8
0
100
AcDbPolyline
90
4
70
1
43
0.0
10
-164.16250000000002
20
83.487500000000011
10
-150.16249999999999
20
83.487500000000011
10
-150.16249999999999
20
97.487500000000011
10
-164.16250000000002
20
97.487500000000011
0
LWPOLYLINE
5
106
100
AcDbEntity
8
0
100
AcDbPolyline
90
4
70
1
43
0.0
10
-50.150000000000006
20
26.337499999999999
10
-50.150000000000006
20
40.337500000000006
10
-64.150000000000006
20
40.337500000000006
10
-64.150000000000006
20
26.337499999999999
0
LWPOLYLINE
5
107
100
AcDbEntity
8
0
100
AcDbPolyline
90
4
70
1
43
0.0
10
-145.40000000000001
20
40.337500000000006
10
-159.40000000000001
20
40.337500000000006
10
-159.40000000000001
20
26.337499999999999
10
-145.40000000000001
20
26.337499999999999
0
LWPOLYLINE
5
108
100
AcDbEntity
8
0
100
AcDbPolyline
90
4
70
1
43
0.0
10
-16.524999999999999
20
64.4375
10
-2.524999999999995
20
64.4375
10
-2.524999999999995
20
78.4375
10
-16.524999999999999
20
78.4375
0
CIRCLE
5
109
100
AcDbEntity
8
0
100
AcDbCircle
10
-38.575000000000003
20
-4.0000000596046448
30
0
40
1.1000000000000032
210
0
220
-0
230
1
0
CIRCLE
5
110
100
AcDbEntity
8
0
100
AcDbCircle
10
-77.962500000000006
20
123.0625
30
0
40
1.0999999999999943
210
0
220
-0
230
1
0
LWPOLYLINE
5
111
100
AcDbEntity
8
0
100
AcDbPolyline
90
4
70
1
43
0.0
10
-126.06250000000001
20
83.487500000000011
10
-112.0625
20
83.487500000000011
10
-112.0625
20
97.487500000000011
10
-126.06250000000001
20
97.487500000000011
0
LWPOLYLINE
5
112
100
AcDbEntity
8
0
100
AcDbPolyline
90
4
70
1
43
0.0
10
-73.962500000000006
20
83.487500000000011
10
-73.962500000000006
20
97.487500000000011
10
-87.962500000000006
20
97.487500000000011
10
-87.962500000000006
20
83.487500000000011
0
CIRCLE
5
113
100
AcDbEntity
8
0
100
AcDbCircle
10
-18.574999999999999
20
-4.0000000596046448
30
0
40
1.0999999999999985
210
0
220
-0
230
1
0
LWPOLYLINE
5
114
100
AcDbEntity
8
0
100
AcDbPolyline
90
4
70
1
43
0.0
10
-107.01250000000002
20
83.487500000000011
10
-93.012500000000017
20
83.487500000000011
10
-93.012500000000017
20
97.487500000000011
10
-107.01250000000002
20
97.487500000000011
0
LWPOLYLINE
5
115
100
AcDbEntity
8
0
100
AcDbPolyline
90
4
70
1
43
0.0
10
-2.524999999999995
20
1.5249999999999986
10
-2.524999999999995
20
18.025000000000002
10
-16.524999999999999
20
18.025000000000002
10
-16.524999999999999
20
1.5249999999999986
0
LWPOLYLINE
5
116
100
AcDbEntity
8
0
100
AcDbPolyline
90
4
70
1
43
0.0
10
-40.625
20
16.524999999999999
10
-54.625
20
16.524999999999999
10
-54.625
20
2.524999999999995
10
-40.625
20
2.5250000000000039
0
LWPOLYLINE
5
117
100
AcDbEntity
8
0
100
AcDbPolyline
90
4
70
1
43
0.0
10
-131.11250000000001
20
83.487500000000011
10
-131.11250000000001
20
97.487500000000011
10
-145.11250000000001
20
97.487500000000011
10
-145.11250000000001
20
83.487500000000011
0
LWPOLYLINE
5
118
100
AcDbEntity
8
0
100
AcDbPolyline
90
12
70
1
43
0.0
10
-58.444250000000004
20
97.487500000000011
10
-58.444250000000004
20
98.487500000000011
10
-65.444250000000011
20
98.487500000000011
10
-65.444250000000011
20
97.487500000000011
10
-68.912499999999994
20
97.487500000000011
10
-68.912499999999994
20
83.487500000000011
10
-33.481249999999996
20
83.487500000000011
10
-33.481249999999996
20
97.487500000000011
10
-34.568250000000006
20
97.487500000000011
10
-34.568250000000006
20
98.487500000000011
10
-41.568250000000013
20
98.487500000000011
10
-41.568250000000013
20
97.487500000000011
0
LWPOLYLINE
5
119
100
AcDbEntity
8
0
100
AcDbPolyline
90
4
70
1
43
0.0
10
-88.250000000000014
20
26.337499999999999
10
-88.250000000000014
20
40.337500000000006
10
-102.25000000000001
20
40.337500000000006
10
-102.25000000000001
20
26.337499999999999
0
LWPOLYLINE
5
120
100
AcDbEntity
8
0
100
AcDbPolyline
90
20
70
1
43
0.0
10
-54.912500000000009
20
116.53750000000001
10
-157.01875000000001
20
116.53750000000001
10
-157.01875000000001
20
102.53749999999999
10
-155.93174999999999
20
102.53749999999999
10
-155.93174999999999
20
101.53750000000001
10
-144.16925000000001
20
101.53750000000001
10
-144.16925000000001
20
102.53749999999999
10
-132.11925000000002
20
102.53749999999999
10
-132.11925000000002
20
101.53750000000001
10
-120.29325
20
101.53750000000001
10
-120.29325
20
102.53749999999999
10
-117.80000000000001
20
102.53749999999999
10
-117.80000000000001
20
101.53750000000001
10
-110.8
20
101.53750000000001
10
-110.8
20
102.53749999999999
10
-108.24325000000002
20
102.53749999999999
10
-108.24325000000002
20
101.53750000000001
10
-101.24325
20
101.53750000000001
10
-101.24325
20
102.53749999999999
10
-54.912500000000009
20
102.53749999999999
0
LWPOLYLINE
5
121
100
AcDbEntity
8
0
100
AcDbPolyline
90
4
70
1
43
0.0
10
-59.675000000000004
20
2.5250000000000039
10
-59.675000000000004
20
16.524999999999999
10
-73.674999999999997
20
16.524999999999999
10
-73.674999999999997
20
2.524999999999995
0
CIRCLE
5
122
100
AcDbEntity
8
0
100
AcDbCircle
10
-157.92500000000001
20
123.0625
30
0
40
1.1000000000000119
210
0
220
-0
230
1
0
CIRCLE
5
123
100
AcDbEntity
8
0
100
AcDbCircle
10
-129.0625
20
-4.0000000000000009
30
0
40
1.0999999999999943
210
0
220
-0
230
1
0
CIRCLE
5
124
100
AcDbEntity
8
0
100
AcDbCircle
10
3.4142135623731007
20
-3.4142135623730931
30
0
40
1.1000000000000005
210
0
220
-0
230
1
0
CIRCLE
5
125
100
AcDbEntity
8
0
100
AcDbCircle
10
3.4142135623730931
20
122.47671356237311
30
0
40
1.1000000000000001
210
0
220
-0
230
1
0
LWPOLYLINE
5
126
100
AcDbEntity
8
0
100
AcDbPolyline
90
4
70
1
43
0.0
10
-2.524999999999995
20
59.387500000000003
10
-16.524999999999999
20
59.387500000000003
10
-16.524999999999999
20
45.387500000000003
10
-2.524999999999995
20
45.387500000000003
0
LWPOLYLINE
5
127
100
AcDbEntity
8
0
100
AcDbPolyline
90
4
70
1
43
0.0
10
-97.77500000000002
20
2.5250000000000039
10
-97.77500000000002
20
16.524999999999999
10
-111.77500000000002
20
16.524999999999999
10
-111.77500000000002
20
2.524999999999995
0
CIRCLE
5
128
100
AcDbEntity
8
0
100
AcDbCircle
10
-109.0625
20
-4.0000000000000009
30
0
40
1.0999999999999943
210
0
220
-0
230
1
0
LWPOLYLINE
5
129
100
AcDbEntity
8
0
100
AcDbPolyline
90
4
70
1
43
0.0
10
-16.524999999999999
20
83.487500000000011
10
-2.524999999999995
20
83.487500000000011
10
-2.524999999999995
20
97.487500000000011
10
-16.524999999999999
20
97.487500000000011
0
LWPOLYLINE
5
130
100
AcDbEntity
8
0
100
AcDbPolyline
90
4
70
1
43
0.0
10
-140.34999999999999
20
26.337499999999999
10
-126.34999999999999
20
26.337499999999999
10
-126.34999999999999
20
40.337500000000006
10
-140.34999999999999
20
40.337500000000006
0
LWPOLYLINE
5
131
100
AcDbEntity
8
0
100
AcDbPolyline
90
4
70
1
43
0.0
10
-92.724999999999994
20
2.524999999999995
10
-78.724999999999994
20
2.5250000000000039
10
-78.724999999999994
20
16.524999999999999
10
-92.724999999999994
20
16.524999999999999
0
LWPOLYLINE
5
132
100
AcDbEntity
8
0
100
AcDbPolyline
90
4
70
1
43
0.0
10
-78.4375
20
64.4375
10
-64.4375
20
64.4375
10
-64.4375
20
78.4375
10
-78.4375
20
78.4375
0
LWPOLYLINE
5
133
100
AcDbEntity
8
0
100
AcDbPolyline
90
4
70
1
43
0.0
10
-59.675000000000004
20
45.387500000000003
10
-59.675000000000004
20
59.387500000000003
10
-73.674999999999997
20
59.387500000000003
10
-73.674999999999997
20
45.387500000000003
0
LWPOLYLINE
5
134
100
AcDbEntity
8
0
100
AcDbPolyline
90
4
70
1
43
0.0
10
-145.40000000000001
20
16.524999999999999
10
-159.40000000000001
20
16.524999999999999
10
-159.40000000000001
20
2.524999999999995
10
-145.40000000000001
20
2.5250000000000039
0
LWPOLYLINE
5
135
100
AcDbEntity
8
0
100
AcDbPolyline
90
4
70
1
43
0.0
10
-92.724999999999994
20
59.387500000000003
10
-92.724999999999994
20
45.387500000000003
10
-78.724999999999994
20
45.387500000000003
10
-78.724999999999994
20
59.387500000000003
0
LWPOLYLINE
5
136
100
AcDbEntity
8
0
100
AcDbPolyline
90
4
70
1
43
0.0
10
-49.862499999999997
20
102.53749999999999
10
-33.481249999999996
20
102.53749999999999
10
-33.481249999999996
20
116.53750000000001
10
-49.862499999999997
20
116.53750000000001
0
LWPOLYLINE
5
137
100
AcDbEntity
8
0
100
AcDbPolyline
90
4
70
1
43
0.0
10
-16.524999999999999
20
40.337500000000006
10
-16.524999999999999
20
26.337499999999999
10
-2.524999999999995
20
26.337499999999999
10
-2.524999999999995
20
40.337500000000006
0
LWPOLYLINE
5
138
100
AcDbEntity
8
0
100
AcDbPolyline
90
4
70
1
43
0.0
10
-16.524999999999999
20
102.53749999999999
10
-2.524999999999995
20
102.53749999999999
10
-2.524999999999995
20
116.53750000000001
10
-16.524999999999999
20
116.53750000000001
0
LWPOLYLINE
5
139
100
AcDbEntity
8
0
100
AcDbPolyline
90
4
70
1
43
0.0
10
-135.875
20
45.387500000000003
10
-135.875
20
59.387500000000003
10
-149.875
20
59.387500000000003
10
-149.875
20
45.387500000000003
0
LWPOLYLINE
5
140
100
AcDbEntity
8
0
100
AcDbPolyline
90
4
70
1
43
0.0
10
-140.63749999999999
20
64.4375
10
-140.63749999999999
20
78.4375
10
-154.63749999999999
20
78.4375
10
-154.63749999999999
20
64.4375
0
LWPOLYLINE
5
141
100
AcDbEntity
8
0
100
AcDbPolyline
90
4
70
1
43
0.0
10
-33.481249999999996
20
78.4375
10
-52.243750000000006
20
78.4375
10
-52.243750000000006
20
64.4375
10
-33.481249999999996
20
64.4375
0
LWPOLYLINE
5
142
100
AcDbEntity
8
0
100
AcDbPolyline
90
4
70
1
43
0.0
10
-49.862499999999997
20
45.387500000000003
10
-35.862499999999997
20
45.387500000000003
10
-35.862499999999997
20
59.387500000000003
10
-49.862499999999997
20
59.387500000000003
0
LWPOLYLINE
5
143
100
AcDbEntity
8
0
100
AcDbPolyline
90
4
70
1
43
0.0
10
-97.77500000000002
20
45.387500000000003
10
-97.77500000000002
20
59.387500000000003
10
-111.77500000000002
20
59.387500000000003
10
-111.77500000000002
20
45.387500000000003
0
LWPOLYLINE
5
144
100
AcDbEntity
8
0
100
AcDbPolyline
90
4
70
1
43
0.0
10
-31.099999999999994
20
40.337500000000006
10
-45.100000000000009
20
40.337500000000006
10
-45.100000000000009
20
26.337499999999999
10
-31.099999999999994
20
26.337499999999999
0
LWPOLYLINE
5
145
100
AcDbEntity
8
0
100
AcDbPolyline
90
4
70
1
43
0.0
10
-83.200000000000003
20
40.337500000000006
10
-83.200000000000003
20
26.337499999999999
10
-69.200000000000003
20
26.337499999999999
10
-69.200000000000003
20
40.337500000000006
0
LWPOLYLINE
5
146
100
AcDbEntity
8
0
100
AcDbPolyline
90
4
70
1
43
0.0
10
-116.82500000000002
20
45.387500000000003
10
-116.82500000000002
20
59.387500000000003
10
-130.82499999999999
20
59.387500000000003
10
-130.82499999999999
20
45.387500000000003
0
LWPOLYLINE
5
147
100
AcDbEntity
8
0
100
AcDbPolyline
90
4
70
1
43
0.0
10
-126.34999999999999
20
16.524999999999999
10
-140.34999999999999
20
16.524999999999999
10
-140.34999999999999
20
2.524999999999995
10
-126.34999999999999
20
2.5250000000000039
0
CIRCLE
5
148
100
AcDbEntity
8
0
100
AcDbCircle
10
-157.92500000000001
20
-4
30
0
40
1.1000000000000119
210
0
220
-0
230
1
0
ENDSEC
0
SECTION
2
OBJECTS
0
DICTIONARY
5
C
100
AcDbDictionary
3
ACAD_GROUP
350
D
3
ACAD_MLINESTYLE
350
17
0
DICTIONARY
5
D
100
AcDbDictionary
0
DICTIONARY
5
1A
330
C
100
AcDbDictionary
0
DICTIONARY
5
17
100
AcDbDictionary
0
ENDSEC
0
EOF
